<svg width="51" height="51" viewBox="0 0 51 51" fill="none" xmlns="http://www.w3.org/2000/svg">
<path d="M29.8901 14.4604C30.8064 13.2775 31.5011 11.6056 31.2498 9.89893C29.7521 10.003 28.0015 10.9612 26.9801 12.2102C26.0489 13.3419 25.2837 15.0254 25.5825 16.6593C27.2198 16.7106 28.9097 15.7292 29.8901 14.4604Z" fill="black"/>
<path d="M37.9829 30.514C33.2172 28.7017 32.4536 21.9264 37.17 19.326C35.7314 17.5219 33.7099 16.4761 31.8016 16.4761C29.2808 16.4761 28.215 17.6821 26.4644 17.6821C24.6596 17.6821 23.2884 16.4794 21.1091 16.4794C18.9677 16.4794 16.6883 17.7878 15.2432 20.0248C13.2117 23.1754 13.5582 29.0982 16.8525 34.1437C18.03 35.9494 19.6032 37.9782 21.6609 37.9964C23.492 38.0146 24.0093 36.8218 26.4907 36.8085C28.9721 36.7937 29.4434 38.0113 31.2712 37.9914C33.3305 37.9749 34.9908 35.7264 36.1683 33.9207C37.0124 32.6271 37.3277 31.9745 37.9829 30.514Z" fill="black"/>
<mask id="path-3-outside-1_584_336" maskUnits="userSpaceOnUse" x="0.98291" y="0.298828" width="50" height="50" fill="black">
<rect fill="white" x="0.98291" y="0.298828" width="50" height="50"/>
<path d="M1.98291 25.2988C1.98291 12.044 12.7281 1.29883 25.9829 1.29883C39.2377 1.29883 49.9829 12.044 49.9829 25.2988C49.9829 38.5537 39.2377 49.2988 25.9829 49.2988C12.7281 49.2988 1.98291 38.5537 1.98291 25.2988Z"/>
</mask>
<path d="M2.98291 25.2988C2.98291 12.5963 13.2804 2.29883 25.9829 2.29883V0.298828C12.1758 0.298828 0.98291 11.4917 0.98291 25.2988H2.98291ZM25.9829 2.29883C38.6855 2.29883 48.9829 12.5963 48.9829 25.2988H50.9829C50.9829 11.4917 39.79 0.298828 25.9829 0.298828V2.29883ZM48.9829 25.2988C48.9829 38.0014 38.6855 48.2988 25.9829 48.2988V50.2988C39.79 50.2988 50.9829 39.1059 50.9829 25.2988H48.9829ZM25.9829 48.2988C13.2804 48.2988 2.98291 38.0014 2.98291 25.2988H0.98291C0.98291 39.1059 12.1758 50.2988 25.9829 50.2988V48.2988Z" fill="black" mask="url(#path-3-outside-1_584_336)"/>
</svg>
