<svg width="21" height="15" viewBox="0 0 21 15" fill="none" xmlns="http://www.w3.org/2000/svg">
<path d="M1.42871 6.54004C0.876426 6.54004 0.428711 6.98775 0.428711 7.54004C0.428711 8.09232 0.876426 8.54004 1.42871 8.54004L1.42871 6.54004ZM20.7071 8.24714C21.0976 7.85662 21.0976 7.22345 20.7071 6.83293L14.3431 0.468969C13.9526 0.0784447 13.3195 0.0784448 12.9289 0.468969C12.5384 0.859494 12.5384 1.49266 12.9289 1.88318L18.5858 7.54004L12.9289 13.1969C12.5384 13.5874 12.5384 14.2206 12.9289 14.6111C13.3195 15.0016 13.9526 15.0016 14.3431 14.6111L20.7071 8.24714ZM1.42871 8.54004L20 8.54004L20 6.54004L1.42871 6.54004L1.42871 8.54004Z" fill="white"/>
</svg>
