<svg width="21" height="16" viewBox="0 0 21 16" fill="none" xmlns="http://www.w3.org/2000/svg">
<path d="M19.9102 8.70703C20.4624 8.70703 20.9102 8.25932 20.9102 7.70703C20.9102 7.15475 20.4624 6.70703 19.9102 6.70703L19.9102 8.70703ZM0.63176 6.99993C0.241236 7.39045 0.241236 8.02362 0.63176 8.41414L6.99572 14.7781C7.38625 15.1686 8.01941 15.1686 8.40994 14.7781C8.80046 14.3876 8.80046 13.7544 8.40994 13.3639L2.75308 7.70703L8.40993 2.05018C8.80046 1.65965 8.80046 1.02649 8.40993 0.635964C8.01941 0.24544 7.38625 0.24544 6.99572 0.635965L0.63176 6.99993ZM19.9102 7.70703L19.9102 6.70703L1.33887 6.70703L1.33887 7.70703L1.33887 8.70703L19.9102 8.70703L19.9102 7.70703Z" fill="#797979"/>
</svg>
