<svg width="50" height="50" viewBox="0 0 50 50" fill="none" xmlns="http://www.w3.org/2000/svg">
<path d="M22.4164 26.6637V38.311H27.6248V26.6637H31.5084L32.2473 21.8459H27.6248V18.7208C27.6248 17.4024 28.2694 16.1166 30.3397 16.1166H32.4426V12.015C32.4426 12.015 30.5351 11.6895 28.7121 11.6895C24.9034 11.6895 22.4164 13.9974 22.4164 18.1739V21.8459H18.1846V26.6637H22.4164Z" fill="black"/>
<path d="M1.81348 25C1.81348 12.0213 12.3348 1.5 25.3135 1.5V0.5C11.7825 0.5 0.813477 11.469 0.813477 25H1.81348ZM25.3135 1.5C38.2922 1.5 48.8135 12.0213 48.8135 25H49.8135C49.8135 11.469 38.8445 0.5 25.3135 0.5V1.5ZM48.8135 25C48.8135 37.9787 38.2922 48.5 25.3135 48.5V49.5C38.8445 49.5 49.8135 38.531 49.8135 25H48.8135ZM25.3135 48.5C12.3348 48.5 1.81348 37.9787 1.81348 25H0.813477C0.813477 38.531 11.7825 49.5 25.3135 49.5V48.5Z" fill="black"/>
</svg>
