<svg width="50" height="50" viewBox="0 0 50 50" fill="none" xmlns="http://www.w3.org/2000/svg">
<path d="M24.6093 18.6214C26.5594 18.6214 27.8748 19.465 28.6248 20.1699L31.5557 17.3041C29.7556 15.6285 27.4132 14.6001 24.6093 14.6001C20.5476 14.6001 17.0398 16.9343 15.332 20.3317L18.6898 22.9432C19.5322 20.4357 21.863 18.6214 24.6093 18.6214Z" fill="black"/>
<path d="M34.579 25.2312C34.579 24.3761 34.5097 23.7521 34.3597 23.105H24.6094V26.9645H30.3327C30.2173 27.9236 29.5942 29.3681 28.2095 30.3388L31.4865 32.881C33.4482 31.0668 34.579 28.3974 34.579 25.2312Z" fill="black"/>
<path d="M18.7015 27.0569C18.4822 26.4098 18.3553 25.7164 18.3553 25C18.3553 24.2835 18.4822 23.5902 18.6899 22.9431L15.3321 20.3315C14.6282 21.7413 14.2244 23.3244 14.2244 25C14.2244 26.6755 14.6282 28.2587 15.3321 29.6684L18.7015 27.0569Z" fill="black"/>
<path d="M24.6095 35.4002C27.4134 35.4002 29.7674 34.4758 31.4866 32.8811L28.2096 30.3389C27.3326 30.9514 26.1557 31.3789 24.6095 31.3789C21.8632 31.3789 19.5324 29.5647 18.7016 27.0571L15.3438 29.6687C17.0515 33.066 20.5478 35.4002 24.6095 35.4002Z" fill="black"/>
<path d="M1.14404 25C1.14404 12.0213 11.6654 1.5 24.644 1.5V0.5C11.1131 0.5 0.144043 11.469 0.144043 25H1.14404ZM24.644 1.5C37.6227 1.5 48.144 12.0213 48.144 25H49.144C49.144 11.469 38.175 0.5 24.644 0.5V1.5ZM48.144 25C48.144 37.9787 37.6227 48.5 24.644 48.5V49.5C38.175 49.5 49.144 38.531 49.144 25H48.144ZM24.644 48.5C11.6654 48.5 1.14404 37.9787 1.14404 25H0.144043C0.144043 38.531 11.1131 49.5 24.644 49.5V48.5Z" fill="black"/>
</svg>
