<svg width="217" height="32" viewBox="0 0 217 32" fill="none" xmlns="http://www.w3.org/2000/svg">
<path d="M210.87 16.7359V24.8047H205.446V7.44664H210.87V10.2944H210.938C211.786 8.46372 213.277 7.31104 215.176 7.31104C215.65 7.31104 216.057 7.31103 216.668 7.44664V12.193C216.227 12.1252 215.922 12.0913 215.549 12.0913C213.108 12.0913 210.87 13.6169 210.87 16.7359Z" fill="black"/>
<path d="M194.284 25.3808C188.656 25.3808 185.266 21.5499 185.266 16.1255C185.266 11.0401 188.452 6.87012 194.284 6.87012C200.183 6.87012 203.166 10.3621 203.166 16.7696V17.5833H190.69C190.69 19.9903 192.385 21.3125 194.419 21.3125C196.352 21.3125 197.165 20.4311 197.504 19.5496H203.03C202.047 23.0755 199.166 25.3808 194.284 25.3808ZM190.724 14.2269H197.708C197.708 11.9894 196.386 10.8028 194.284 10.8028C192.216 10.8028 190.86 11.9894 190.724 14.2269Z" fill="black"/>
<path d="M177.602 24.8037V0.563477H183.027V24.8037H177.602Z" fill="black"/>
<path d="M166.048 25.3808C160.318 25.3808 156.826 21.6516 156.826 16.1594C156.826 10.7011 160.318 6.87012 166.149 6.87012C171.879 6.87012 175.371 10.5994 175.371 16.0577C175.371 21.5499 171.879 25.3808 166.048 25.3808ZM162.318 16.1255C162.318 19.4818 163.674 21.3125 166.115 21.3125C168.522 21.3125 169.878 19.4818 169.878 16.1255C169.878 12.7691 168.522 10.9384 166.115 10.9384C163.674 10.9384 162.318 12.7691 162.318 16.1255Z" fill="black"/>
<path d="M150.482 16.7359V24.8047H145.057V7.44664H150.482V10.2944H150.549C151.397 8.46372 152.889 7.31104 154.787 7.31104C155.262 7.31104 155.669 7.31103 156.279 7.44664V12.193C155.838 12.1252 155.533 12.0913 155.16 12.0913C152.719 12.0913 150.482 13.6169 150.482 16.7359Z" fill="black"/>
<path d="M139.489 25.1437C135.692 25.1437 134.065 23.4147 134.065 19.1769V11.515H131.658V7.44667H134.065V2.59863H139.489V7.44667H142.507V11.515H139.489V19.0413C139.489 20.9059 140.201 21.0754 141.252 21.0754C141.761 21.0754 142.066 21.0415 142.71 20.9398V24.7708C141.557 25.042 140.574 25.1437 139.489 25.1437Z" fill="black"/>
<path d="M124.533 14.8031C124.533 12.1926 123.617 11.3111 121.82 11.3111C119.752 11.3111 118.566 12.3621 118.566 14.7692V24.8043H113.141V7.44624H118.566V9.95502H118.634C119.549 8.36161 121.244 6.90381 124.329 6.90381C127.685 6.90381 129.957 9.10746 129.957 13.074V24.8043H124.533V14.8031Z" fill="black"/>
<path d="M101.587 25.3808C95.8572 25.3808 92.3652 21.6516 92.3652 16.1594C92.3652 10.7011 95.8572 6.87012 101.688 6.87012C107.418 6.87012 110.91 10.5994 110.91 16.0577C110.91 21.5499 107.418 25.3808 101.587 25.3808ZM97.8574 16.1255C97.8574 19.4818 99.2135 21.3125 101.654 21.3125C104.062 21.3125 105.418 19.4818 105.418 16.1255C105.418 12.7691 104.062 10.9384 101.654 10.9384C99.2135 10.9384 97.8574 12.7691 97.8574 16.1255Z" fill="black"/>
<path d="M82.7088 25.3808C77.2166 25.3808 73.7586 21.5499 73.7586 16.1255C73.7586 10.735 77.2166 6.87012 82.5732 6.87012C87.5908 6.87012 90.642 9.85353 91.0827 13.9218H85.6244C85.4549 12.4979 84.8447 10.9384 82.6749 10.9384C80.4374 10.9384 79.3186 12.8708 79.3186 16.1255C79.3186 19.3801 80.4035 21.3125 82.6749 21.3125C84.8108 21.3125 85.4549 19.8547 85.6244 18.2613H91.0827C90.8115 22.3974 87.6925 25.3808 82.7088 25.3808Z" fill="black"/>
<path fill-rule="evenodd" clip-rule="evenodd" d="M40.7182 5.97179C40.7182 4.09941 39.2003 2.58154 37.328 2.58154H4.39024C2.51786 2.58154 1 4.09941 1 5.97179V22.2673C1 24.1397 2.51786 25.6576 4.39024 25.6576H6.08574V27.3527C6.08574 29.2251 7.60361 30.743 9.47599 30.743H42.4137C44.2861 30.743 45.804 29.2251 45.804 27.3527V11.0572C45.804 9.18479 44.2861 7.66693 42.4137 7.66693H40.7182V5.97179ZM40.7182 7.66693H7.78087C6.84468 7.66693 6.08574 8.42586 6.08574 9.36205V25.6576H39.0231C39.9593 25.6576 40.7182 24.8986 40.7182 23.9624V7.66693Z" fill="black"/>
<path d="M6.08574 25.6576H4.39024C2.51786 25.6576 1 24.1397 1 22.2673V5.97179C1 4.09941 2.51786 2.58154 4.39024 2.58154H37.328C39.2003 2.58154 40.7182 4.09941 40.7182 5.97179V7.66693M6.08574 25.6576V27.3527C6.08574 29.2251 7.60361 30.743 9.47599 30.743H42.4137C44.2861 30.743 45.804 29.2251 45.804 27.3527V11.0572C45.804 9.18479 44.2861 7.66693 42.4137 7.66693H40.7182M6.08574 25.6576V9.36205C6.08574 8.42586 6.84468 7.66693 7.78087 7.66693H40.7182M6.08574 25.6576H39.0231C39.9593 25.6576 40.7182 24.8986 40.7182 23.9624V7.66693" stroke="black"/>
<path d="M6.08574 25.6576H4.39024C2.51786 25.6576 1 24.1397 1 22.2673V5.97179C1 4.09941 2.51786 2.58154 4.39024 2.58154H37.328C39.2003 2.58154 40.7182 4.09941 40.7182 5.97179V7.66693M6.08574 25.6576V27.3527C6.08574 29.2251 7.60361 30.743 9.47599 30.743H42.4137C44.2861 30.743 45.804 29.2251 45.804 27.3527V11.0572C45.804 9.18479 44.2861 7.66693 42.4137 7.66693H40.7182M6.08574 25.6576V9.36205C6.08574 8.42586 6.84468 7.66693 7.78087 7.66693H40.7182M6.08574 25.6576H39.0231C39.9593 25.6576 40.7182 24.8986 40.7182 23.9624V7.66693" stroke="black" stroke-opacity="0.2"/>
<path d="M6.08574 25.6576H4.39024C2.51786 25.6576 1 24.1397 1 22.2673V5.97179C1 4.09941 2.51786 2.58154 4.39024 2.58154H37.328C39.2003 2.58154 40.7182 4.09941 40.7182 5.97179V7.66693M6.08574 25.6576V27.3527C6.08574 29.2251 7.60361 30.743 9.47599 30.743H42.4137C44.2861 30.743 45.804 29.2251 45.804 27.3527V11.0572C45.804 9.18479 44.2861 7.66693 42.4137 7.66693H40.7182M6.08574 25.6576V9.36205C6.08574 8.42586 6.84468 7.66693 7.78087 7.66693H40.7182M6.08574 25.6576H39.0231C39.9593 25.6576 40.7182 24.8986 40.7182 23.9624V7.66693" stroke="black" stroke-opacity="0.2"/>
<path d="M15.2745 23.5749C11.1554 23.5749 8.56186 20.7017 8.56186 16.6334C8.56186 12.5906 11.1554 9.69189 15.1728 9.69189C18.936 9.69189 21.2244 11.9295 21.555 14.9807H17.4612C17.3341 13.9127 16.8764 12.7431 15.2491 12.7431C13.5709 12.7431 12.7319 14.1924 12.7319 16.6334C12.7319 19.0744 13.5455 20.5237 15.2491 20.5237C16.851 20.5237 17.3341 19.4304 17.4612 18.2353H21.555C21.3515 21.3374 19.0123 23.5749 15.2745 23.5749Z" fill="black"/>
</svg>
