<svg width="45" height="29" viewBox="0 0 45 29" fill="none" xmlns="http://www.w3.org/2000/svg">
<path fill-rule="evenodd" clip-rule="evenodd" d="M39.7182 3.67735C39.7182 1.80497 38.2003 0.287109 36.328 0.287109H3.39024C1.51786 0.287109 0 1.80498 0 3.67735V19.9729C0 21.8453 1.51786 23.3631 3.39024 23.3631H5.08574V25.0583C5.08574 26.9307 6.60361 28.4485 8.47599 28.4485H41.4137C43.2861 28.4485 44.804 26.9306 44.804 25.0583V8.76273C44.804 6.89036 43.2861 5.37249 41.4137 5.37249H39.7182V3.67735ZM39.7182 5.37249H6.78087C5.84468 5.37249 5.08574 6.13143 5.08574 7.06762V23.3631H38.0231C38.9593 23.3631 39.7182 22.6042 39.7182 21.668V5.37249Z" fill="black"/>
<path d="M14.2744 21.2805C10.1553 21.2805 7.56177 18.4073 7.56177 14.339C7.56177 10.2961 10.1553 7.39746 14.1727 7.39746C17.9359 7.39746 20.2243 9.63502 20.5549 12.6862H16.4612C16.334 11.6183 15.8763 10.4487 14.249 10.4487C12.5709 10.4487 11.7318 11.898 11.7318 14.339C11.7318 16.78 12.5454 18.2293 14.249 18.2293C15.8509 18.2293 16.334 17.1359 16.4612 15.9409H20.5549C20.3515 19.0429 18.0122 21.2805 14.2744 21.2805Z" fill="black"/>
</svg>
