<svg width="145" height="21" viewBox="0 0 145 21" fill="none" xmlns="http://www.w3.org/2000/svg">
<path d="M140.564 11.0433V16.4474H136.931V4.82178H140.564V6.72911H140.609C141.177 5.50297 142.176 4.73096 143.447 4.73096C143.765 4.73096 144.038 4.73096 144.446 4.82178V8.00066C144.151 7.95525 143.947 7.93255 143.697 7.93255C142.062 7.93255 140.564 8.95433 140.564 11.0433Z" fill="black"/>
<path d="M129.453 16.8337C125.684 16.8337 123.413 14.2679 123.413 10.6349C123.413 7.22891 125.547 4.43604 129.453 4.43604C133.404 4.43604 135.402 6.77478 135.402 11.0663V11.6112H127.046C127.046 13.2234 128.181 14.1089 129.544 14.1089C130.838 14.1089 131.383 13.5186 131.61 12.9282H135.311C134.653 15.2896 132.723 16.8337 129.453 16.8337ZM127.069 9.3633H131.746C131.746 7.86469 130.861 7.06997 129.453 7.06997C128.068 7.06997 127.16 7.86469 127.069 9.3633Z" fill="black"/>
<path d="M118.281 16.4469V0.211914H121.914V16.4469H118.281Z" fill="black"/>
<path d="M110.541 16.8337C106.704 16.8337 104.365 14.336 104.365 10.6576C104.365 7.00185 106.704 4.43604 110.609 4.43604C114.447 4.43604 116.786 6.93373 116.786 10.5894C116.786 14.2679 114.447 16.8337 110.541 16.8337ZM108.044 10.6349C108.044 12.8828 108.952 14.1089 110.587 14.1089C112.199 14.1089 113.107 12.8828 113.107 10.6349C113.107 8.38693 112.199 7.16079 110.587 7.16079C108.952 7.16079 108.044 8.38693 108.044 10.6349Z" fill="black"/>
<path d="M100.116 11.0433V16.4474H96.4834V4.82178H100.116V6.72911H100.162C100.729 5.50297 101.729 4.73096 103 4.73096C103.318 4.73096 103.59 4.73096 103.999 4.82178V8.00066C103.704 7.95525 103.5 7.93255 103.25 7.93255C101.615 7.93255 100.116 8.95433 100.116 11.0433Z" fill="black"/>
<path d="M92.7549 16.6749C90.2118 16.6749 89.1219 15.5169 89.1219 12.6786V7.54695H87.5098V4.8222H89.1219V1.5752H92.7549V4.8222H94.7758V7.54695H92.7549V12.5878C92.7549 13.8366 93.2318 13.9501 93.9356 13.9501C94.2762 13.9501 94.4806 13.9274 94.912 13.8593V16.4251C94.14 16.6068 93.4815 16.6749 92.7549 16.6749Z" fill="black"/>
<path d="M82.7387 9.74906C82.7387 8.00068 82.1256 7.41031 80.9222 7.41031C79.5371 7.41031 78.7424 8.11421 78.7424 9.72636V16.4474H75.1094V4.8218H78.7424V6.50206H78.7878C79.4009 5.43487 80.5362 4.4585 82.6025 4.4585C84.8504 4.4585 86.3717 5.9344 86.3717 8.59104V16.4474H82.7387V9.74906Z" fill="black"/>
<path d="M67.3695 16.8337C63.5321 16.8337 61.1934 14.336 61.1934 10.6576C61.1934 7.00185 63.5321 4.43604 67.4376 4.43604C71.275 4.43604 73.6137 6.93373 73.6137 10.5894C73.6137 14.2679 71.275 16.8337 67.3695 16.8337ZM64.8718 10.6349C64.8718 12.8828 65.78 14.1089 67.4149 14.1089C69.027 14.1089 69.9353 12.8828 69.9353 10.6349C69.9353 8.38693 69.027 7.16079 67.4149 7.16079C65.78 7.16079 64.8718 8.38693 64.8718 10.6349Z" fill="black"/>
<path d="M54.7259 16.8337C51.0475 16.8337 48.7314 14.2679 48.7314 10.6349C48.7314 7.02455 51.0475 4.43604 54.6351 4.43604C57.9956 4.43604 60.0392 6.43419 60.3344 9.15895H56.6786C56.5651 8.20528 56.1564 7.16079 54.7032 7.16079C53.2046 7.16079 52.4553 8.45505 52.4553 10.6349C52.4553 12.8147 53.1819 14.1089 54.7032 14.1089C56.1337 14.1089 56.5651 13.1325 56.6786 12.0654H60.3344C60.1527 14.8355 58.0637 16.8337 54.7259 16.8337Z" fill="black"/>
<path fill-rule="evenodd" clip-rule="evenodd" d="M26.6015 3.83411C26.6015 2.58007 25.5849 1.56348 24.3308 1.56348H2.27063C1.0166 1.56348 0 2.58008 0 3.83411V14.7481C0 16.0022 1.0166 17.0188 2.27063 17.0188H3.4062V18.1541C3.4062 19.4081 4.4228 20.4247 5.67684 20.4247H27.7371C28.9911 20.4247 30.0077 19.4081 30.0077 18.1541V7.24007C30.0077 5.98604 28.9911 4.96944 27.7371 4.96944H26.6015V3.83411ZM26.6015 4.96944H4.54152C3.9145 4.96944 3.4062 5.47774 3.4062 6.10476V17.0188H25.4662C26.0932 17.0188 26.6015 16.5105 26.6015 15.8834V4.96944Z" fill="black"/>
<path d="M9.56031 15.6239C6.80149 15.6239 5.06445 13.6996 5.06445 10.9748C5.06445 8.26707 6.80149 6.32568 9.49219 6.32568C12.0126 6.32568 13.5453 7.8243 13.7667 9.86787H11.0249C10.9397 9.15262 10.6332 8.36925 9.54328 8.36925C8.41931 8.36925 7.85733 9.33995 7.85733 10.9748C7.85733 12.6097 8.40228 13.5804 9.54328 13.5804C10.6162 13.5804 10.9397 12.8481 11.0249 12.0477H13.7667C13.6304 14.1253 12.0637 15.6239 9.56031 15.6239Z" fill="black"/>
</svg>
